<?xml version="1.0" encoding="utf-8"?><svg viewBox="0 0 100 100" xmlns="http://www.w3.org/2000/svg" width="200px" height="200px" xmlns:xlink="http://www.w3.org/1999/xlink" style="width:100%;height:100%;background-size:initial;background-repeat-y:initial;background-repeat-x:initial;background-position-y:initial;background-position-x:initial;background-origin:initial;background-image:initial;background-color:rgb(245, 248, 251);background-clip:initial;background-attachment:initial;animation-play-state:paused" ><g class="ldl-scale" style="transform-origin:50% 50%;transform:rotate(0deg) scale(0.8, 0.8);animation-play-state:paused" ><path fill="#abbd81" d="M26 50a24 24 0 0 1 3.218-12A24.097 24.097 0 0 1 48.5 26.048V21.97L53.795 19 48.5 16.03v-4.501c-13.119.517-25.218 7.783-31.839 19.224A38.492 38.492 0 0 0 11.5 50c0 6.253 1.53 12.422 4.437 17.935l2.702-1.56.287-8.197 7.242 3.85 2.34-1.351A23.996 23.996 0 0 1 26 50z" style="fill:rgb(13, 110, 253);animation-play-state:paused" ></path>
<path fill="#f8b26a" d="M62 70.785a24.006 24.006 0 0 1-12.001 3.213 24.1 24.1 0 0 1-19.992-10.723l-3.532 2.039-5.219-3.101.076 6.07-3.898 2.251c7.007 11.103 19.349 17.948 32.568 17.961a38.494 38.494 0 0 0 19.249-5.154 38.5 38.5 0 0 0 13.314-12.809l-2.702-1.56-7.243 3.85-.287-8.197-2.34-1.351A24.011 24.011 0 0 1 62 70.785z" style="fill:rgb(97, 218, 251);animation-play-state:paused" ></path>
<path fill="#e15b64" d="M62 29.215a23.987 23.987 0 0 1 8.783 8.787 24.1 24.1 0 0 1 .71 22.675l3.532 2.039-.076 6.07 5.219-3.101 3.898 2.251c6.112-11.62 5.868-25.731-.729-37.185a38.494 38.494 0 0 0-14.088-14.093 38.5 38.5 0 0 0-17.75-5.125v3.12L58.455 19 51.5 23.347v2.702A24.003 24.003 0 0 1 62 29.215z" style="fill:rgb(74, 80, 115);animation-play-state:paused" ></path>
<metadata xmlns:d="https://loading.io/stock/" style="animation-play-state:paused" ><d:name style="animation-play-state:paused" >wheel</d:name>


<d:tags style="animation-play-state:paused" >wheel,ring,cycle,composition,part,circle,infographics</d:tags>


<d:license style="animation-play-state:paused" >by</d:license>


<d:slug style="animation-play-state:paused" >56vdtv</d:slug></metadata></g><!-- generated by https://loading.io/ --></svg>